{
    "accessors" : [
        {
            "bufferView" : 0, 
            "componentType" : 5123, 
            "count" : 846, 
            "max" : [
                499
            ], 
            "min" : [
                0
            ], 
            "type" : "SCALAR"
        }, 
        {
            "bufferView" : 1, 
            "componentType" : 5126, 
            "count" : 500, 
            "max" : [
                4.634191036224365, 
                1.1097824573516846, 
                4.177345275878906
            ], 
            "min" : [
                -3.260916233062744, 
                -0.8166418075561523, 
                -4.177345275878906
            ], 
            "type" : "VEC3"
        }, 
        {
            "bufferView" : 2, 
            "componentType" : 5126, 
            "count" : 500, 
            "max" : [
                1.0, 
                0.9995287656784058, 
                1.0
            ], 
            "min" : [
                -1.0, 
                -0.9998976588249207, 
                -1.0
            ], 
            "type" : "VEC3"
        }, 
        {
            "bufferView" : 3, 
            "componentType" : 5126, 
            "count" : 500, 
            "max" : [
                3.6568102836608887, 
                3.6568100452423096
            ], 
            "min" : [
                -2.6568102836608887, 
                -2.6568100452423096
            ], 
            "type" : "VEC2"
        }, 
        {
            "bufferView" : 4, 
            "componentType" : 5121, 
            "count" : 12, 
            "max" : [
                7
            ], 
            "min" : [
                0
            ], 
            "type" : "SCALAR"
        }, 
        {
            "bufferView" : 5, 
            "componentType" : 5126, 
            "count" : 8, 
            "max" : [
                1.7673604488372803, 
                1.1097824573516846, 
                0.8098207116127014
            ], 
            "min" : [
                1.0462734699249268, 
                0.9016870260238647, 
                -0.8098209500312805
            ], 
            "type" : "VEC3"
        }, 
        {
            "bufferView" : 6, 
            "componentType" : 5126, 
            "count" : 8, 
            "max" : [
                0.2772708833217621, 
                0.9607917666435242, 
                4.402714637308236e-08
            ], 
            "min" : [
                0.2772708535194397, 
                0.9607917666435242, 
                -4.402714637308236e-08
            ], 
            "type" : "VEC3"
        }, 
        {
            "bufferView" : 7, 
            "componentType" : 5126, 
            "count" : 8, 
            "max" : [
                1.4987373352050781, 
                -1.130732774734497
            ], 
            "min" : [
                1.0880664587020874, 
                -1.5840816497802734
            ], 
            "type" : "VEC2"
        }
    ], 
    "asset" : {
        "generator" : "Khronos Blender glTF 2.0 exporter", 
        "version" : "2.0"
    }, 
    "bufferViews" : [
        {
            "buffer" : 0, 
            "byteLength" : 1692, 
            "byteOffset" : 0, 
            "target" : 34963
        }, 
        {
            "buffer" : 0, 
            "byteLength" : 6000, 
            "byteOffset" : 1692, 
            "target" : 34962
        }, 
        {
            "buffer" : 0, 
            "byteLength" : 6000, 
            "byteOffset" : 7692, 
            "target" : 34962
        }, 
        {
            "buffer" : 0, 
            "byteLength" : 4000, 
            "byteOffset" : 13692, 
            "target" : 34962
        }, 
        {
            "buffer" : 0, 
            "byteLength" : 12, 
            "byteOffset" : 17692, 
            "target" : 34963
        }, 
        {
            "buffer" : 0, 
            "byteLength" : 96, 
            "byteOffset" : 17704, 
            "target" : 34962
        }, 
        {
            "buffer" : 0, 
            "byteLength" : 96, 
            "byteOffset" : 17800, 
            "target" : 34962
        }, 
        {
            "buffer" : 0, 
            "byteLength" : 64, 
            "byteOffset" : 17896, 
            "target" : 34962
        }
    ], 
    "buffers" : [
        {
            "byteLength" : 17960, 
            "uri" : "data:application/octet-stream;base64,"
        }
    ], 
    "images" : [
        {
            "uri" : "ship_albedo.png"
        }, 
        {
            "uri" : "ship_mettalic.png"
        }, 
        {
            "uri" : "ship_normal.png"
        }
    ], 
    "materials" : [
        {
            "name" : "ship", 
            "normalTexture" : {
                "index" : 2, 
                "scale" : 3.5
            }, 
            "pbrMetallicRoughness" : {
                "baseColorTexture" : {
                    "index" : 0
                }, 
                "metallicRoughnessTexture" : {
                    "index" : 1
                }, 
                "roughnessFactor" : 0.25
            }
        }, 
        {
            "name" : "window", 
            "pbrMetallicRoughness" : {
                "metallicFactor" : 0.75, 
                "roughnessFactor" : 0.10000000149011612
            }
        }
    ], 
    "meshes" : [
        {
            "name" : "Cube", 
            "primitives" : [
                {
                    "attributes" : {
                        "NORMAL" : 2, 
                        "POSITION" : 1, 
                        "TEXCOORD_0" : 3
                    }, 
                    "indices" : 0, 
                    "material" : 0
                }, 
                {
                    "attributes" : {
                        "NORMAL" : 6, 
                        "POSITION" : 5, 
                        "TEXCOORD_0" : 7
                    }, 
                    "indices" : 4, 
                    "material" : 1
                }
            ]
        }
    ], 
    "nodes" : [
        {
            "mesh" : 0, 
            "name" : "Cube", 
            "translation" : [
                -1.8819164037704468, 
                0.011259025894105434, 
                1.0152157159382114e-07
            ]
        }
    ], 
    "samplers" : [
        {}
    ], 
    "scene" : 0, 
    "scenes" : [
        {
            "name" : "Scene", 
            "nodes" : [
                0
            ]
        }
    ], 
    "textures" : [
        {
            "sampler" : 0, 
            "source" : 0
        }, 
        {
            "sampler" : 0, 
            "source" : 1
        }, 
        {
            "sampler" : 0, 
            "source" : 2
        }
    ]
}
